<svg width="16" height="14" fill="none" xmlns="http://www.w3.org/2000/svg"><path fill="none" d="M0 0h16v14H0z"/><path d="M8 9.3c-.4 0-.7-.2-.7-.5V5.2c0-.3.3-.5.7-.5.4 0 .7.2.7.5v3.6c0 .3-.3.5-.7.5z" fill="#EB5757"/><circle cx="8" cy="10.7" r=".7" fill="#EB5757"/><path d="M13.6 14H2.4c-.8 0-1.7-.5-2-1.2-.5-.7-.5-1.6 0-2.3l5.5-9.3C6.4.5 7.2 0 8 0s1.7.5 2 1.2l5.6 9.3c.5.7.5 1.6 0 2.3-.3.7-1 1.2-2 1.2zM8 1c-.6 0-1 .3-1.2.7L1.2 11c-.3.5-.3 1 0 1.5.3.4.8.7 1.2.7h11.3c.5 0 1-.3 1.2-.7.3-.5.3-1 0-1.5L9.3 1.7C9 1.3 8.6 1 8 1z" fill="#EB5757"/></svg>