<svg width="26" height="26" fill="none" xmlns="http://www.w3.org/2000/svg"><path d="M13 16.9A3.8 3.8 0 0 1 9.4 13c0-2.2 1.6-3.8 3.8-3.8 2.1 0 3.8 1.6 3.8 3.8s-1.7 3.8-3.8 3.8zm0-6.1a2.3 2.3 0 0 0-2.2 2.3 2.3 2.3 0 0 0 2.3 2.3 2.3 2.3 0 0 0 2.3-2.3 2.3 2.3 0 0 0-2.3-2.3z" fill="#726F68"/><path d="M14.1 26h-2c-.8 0-1.8-.8-1.8-1.8v-1.5l-1.8-.8h-.3l-1 1c-.7.7-1.9.7-2.6 0L3 21.5A1.8 1.8 0 0 1 3 19l1.1-1.1c.2-.2 0-.3 0-.3L3.5 16c0-.2-.2-.2-.3-.2H1.8C1 15.8 0 15 0 14v-2c0-1 .8-1.8 1.8-1.8h1.4c.2 0 .2-.2.3-.2l.6-1.5v-.3l-1-1a1.8 1.8 0 0 1 0-2.6L4.5 3c.6-.6 1.8-.6 2.6 0l1 1.1c.1.2.1.2.3 0l1.5-.6c.2 0 .2-.1.2-.3V1.8C10.2 1 11 0 12 0h2c1 0 1.8.8 1.8 1.8v1.4c0 .2.2.2.2.3l1.5.6h.3l1-1c.7-.7 1.9-.7 2.6 0L23 4.5c.7.7.7 1.8 0 2.6l-1.1 1c-.2.1 0 .3 0 .3l.6 1.5c0 .2.2.2.3.2h1.4c.9 0 1.8.7 1.8 1.8v2c0 1-.8 1.8-1.8 1.8h-1.4c-.1 0-.1.2-.3.2l-.6 1.5v.3l1 1c.8.8.8 1.9 0 2.6L21.4 23c-.6.6-1.8.6-2.6 0l-1-1.1h-.3l-1.5.6c-.2 0-.2.2-.2.3v1.4c0 1-.8 1.8-1.7 1.8zm-5.7-5.6l.9.1 2 .8c.2.1.6.4.6.8v2c0 .2.1.4.3.4h2l.2-.3v-1.4c0-.8.5-1.5 1.3-1.7.4-.1.9-.3 1.3-.6.8-.3 1.6-.3 2.2.3l1 1c.2.2.3.2.3 0l1.5-1.4c.2-.2.2-.3 0-.3L21 19c-.6-.6-.6-1.4-.3-2.1.1-.5.4-1 .6-1.4.3-.8.9-1.2 1.7-1.2h1.3c.2 0 .3-.2.3-.3v-2c0-.1-.1-.3-.3-.3H23c-.8 0-1.6-.5-1.7-1.2-.2-.5-.3-1-.6-1.4-.3-.8-.3-1.5.3-2.1l1-1c.2-.2.2-.4 0-.4l-1.5-1.5c-.1-.2-.3-.2-.3 0l-1 1c-.6.5-1.4.7-2.2.4l-1.3-.6c-.8-.3-1.3-1-1.3-1.7V1.8c0-.1-.1-.3-.3-.3h-2l-.2.3v1.4c0 .8-.5 1.5-1.3 1.7-.4.1-.9.3-1.3.6-.8.3-1.6.3-2.2-.3l-1-1c-.2-.2-.3-.2-.3 0L4.3 5.5c-.2.2-.2.3 0 .3l1 1c.6.7.6 1.5.3 2.2-.1.5-.4 1-.6 1.4-.3.8-.9 1.2-1.6 1.2H2c-.2 0-.3.2-.3.3v2c0 .1.1.3.3.3h1.4c.7 0 1.5.5 1.6 1.2.2.5.3 1 .6 1.4.3.8.3 1.5-.3 2.1l-1 1c-.2.2-.2.4 0 .4l1.5 1.5c.1.2.3.2.3 0l1-1c.3-.4.8-.5 1.3-.5z" fill="#726F68"/></svg>