<svg width="24" height="21" fill="none" xmlns="http://www.w3.org/2000/svg"><path d="M12 14c-.6 0-1-.3-1-.8V7.8c0-.5.4-.8 1-.8s1 .3 1 .8v5.4c0 .5-.4.8-1 .8z" fill="#EB5757"/><circle cx="1" cy="1" r="1" transform="translate(11 15)" fill="#EB5757"/><path d="M20.4 21H3.6c-1.2 0-2.5-.7-3-1.8-.8-1-.8-2.4 0-3.5l8.3-14C9.6.8 10.7 0 12 0s2.5.7 3.1 1.8l8.4 14c.7 1 .7 2.4 0 3.4-.6 1.1-1.7 1.8-3.1 1.8zM12 1.5c-.8 0-1.6.4-1.8 1l-8.4 14a2 2 0 0 0 0 2.2c.4.7 1.1 1 1.8 1h16.9c.8 0 1.6-.3 1.8-1a2 2 0 0 0 0-2.2L14 2.5c-.4-.6-1.2-1-2-1z" fill="#EB5757"/></svg>