<svg xmlns="http://www.w3.org/2000/svg" width="26" height="22" viewBox="-3.4 -1 26 22"><path fill="#726F68" d="M8 17a8.4 8.4 0 0 0 8.5-8.5h-2.1A6.3 6.3 0 0 1 8 14.8V17zm8.5-8.5A8.5 8.5 0 0 0 8 0v2.3a6.3 6.3 0 0 1 6.4 6.2h2zM8 0A8.4 8.4 0 0 0-.4 8.5h2A6.3 6.3 0 0 1 8 2.3V0zM-.4 8.5A8.5 8.5 0 0 0 8 17v-2.2a6.3 6.3 0 0 1-6.3-6.3h-2z"/><path fill="#726F68" d="M15 13a1 1 0 0 0-1.5 0c-.4.5-.5 1.1 0 1.6l1.4-1.5zm3 7a1 1 0 0 0 1.4 0c.4-.4.4-1.1 0-1.6L18 20zm-4.6-5.4l4.5 5.3 1.6-1.5-4.5-5.3-1.6 1.5z"/></svg>