<?xml version="1.0" encoding="utf-8"?>
<!-- Generator: Adobe Illustrator 16.0.0, SVG Export Plug-In . SVG Version: 6.00 Build 0)  -->
<!DOCTYPE svg PUBLIC "-//W3C//DTD SVG 1.1//EN" "http://www.w3.org/Graphics/SVG/1.1/DTD/svg11.dtd">
<svg version="1.1" id="Layer_1" xmlns="http://www.w3.org/2000/svg" xmlns:xlink="http://www.w3.org/1999/xlink" x="0px" y="0px"
	 width="24px" height="15px" viewBox="-4.5 0 24 15" enable-background="new -4.5 0 24 15" xml:space="preserve">
<path fill="#047350" fill-opacity="0.84" d="M7.5,0C6.017,0,4.566,0.44,3.333,1.264C2.1,2.088,1.139,3.259,0.571,4.63
	C0.003,6-0.146,7.508,0.144,8.963c0.29,1.455,1.004,2.791,2.053,3.84s2.385,1.764,3.84,2.053C7.492,15.146,9,14.996,10.37,14.43
	c1.37-0.568,2.542-1.529,3.366-2.763S15,8.983,15,7.5c0-1.989-0.79-3.897-2.197-5.303C11.396,0.79,9.489,0,7.5,0z M7.5,13.637
	c-1.214,0-2.4-0.36-3.409-1.035c-1.009-0.674-1.795-1.632-2.26-2.754C1.366,8.727,1.245,7.493,1.481,6.303s0.821-2.284,1.68-3.142
	c0.858-0.858,1.951-1.443,3.142-1.68s2.424-0.115,3.545,0.349c1.122,0.464,2.08,1.251,2.754,2.26
	C13.276,5.1,13.637,6.286,13.637,7.5c0,0.806-0.159,1.604-0.467,2.348c-0.309,0.745-0.762,1.422-1.331,1.991
	s-1.246,1.022-1.991,1.331C9.104,13.478,8.306,13.637,7.5,13.637z M10.027,9.066c0.109,0.131,0.166,0.298,0.159,0.469
	c-0.007,0.17-0.079,0.332-0.199,0.452c-0.12,0.121-0.282,0.192-0.452,0.199c-0.171,0.008-0.338-0.049-0.469-0.159L7.018,7.979
	C6.955,7.916,6.904,7.84,6.87,7.757C6.836,7.675,6.818,7.586,6.818,7.497V3.409C6.812,3.315,6.824,3.222,6.855,3.133
	s0.08-0.169,0.144-0.238C7.062,2.827,7.14,2.772,7.226,2.734c0.086-0.038,0.179-0.057,0.272-0.057s0.187,0.019,0.272,0.057
	s0.163,0.092,0.227,0.161c0.064,0.069,0.113,0.15,0.144,0.238c0.03,0.088,0.044,0.182,0.036,0.276v3.808L10.027,9.066z"/>
</svg>
