<?xml version="1.0" encoding="utf-8"?>
<!-- Generator: Adobe Illustrator 16.0.0, SVG Export Plug-In . SVG Version: 6.00 Build 0)  -->
<!DOCTYPE svg PUBLIC "-//W3C//DTD SVG 1.1//EN" "http://www.w3.org/Graphics/SVG/1.1/DTD/svg11.dtd">
<svg version="1.1" id="Layer_1" xmlns="http://www.w3.org/2000/svg" xmlns:xlink="http://www.w3.org/1999/xlink" x="0px" y="0px"
	 width="24px" height="15px" viewBox="0.016 0 24 15" enable-background="new 0.016 0 24 15" xml:space="preserve">
<path fill="#047350" fill-opacity="0.84" d="M12.054,9.375c-2.009,0-3.616-1.741-3.616-4.017c0-2.277,1.607-4.018,3.616-4.018
	c2.009,0,3.616,1.741,3.616,4.018C15.67,7.634,14.062,9.375,12.054,9.375z M12.054,2.679c-1.206,0-2.277,1.205-2.277,2.679
	c0,1.473,0.938,2.678,2.277,2.678c1.339,0,2.276-1.205,2.276-2.678C14.33,3.884,13.259,2.679,12.054,2.679z"/>
<path fill="#047350" fill-opacity="0.84" d="M13.525,7.635h0.268c2.143,0,3.885,1.741,3.885,3.884v2.812
	c0,0.401-0.269,0.67-0.67,0.67c-0.402,0-0.67-0.269-0.67-0.67v-2.812c0-1.339-1.205-2.544-2.545-2.544h-0.268V7.635z"/>
<path fill="#047350" fill-opacity="0.84" d="M10.58,8.975h-0.268c-1.339,0-2.544,1.205-2.544,2.544v2.812
	c0,0.401-0.268,0.67-0.67,0.67c-0.401,0-0.669-0.269-0.669-0.67v-2.812c0-2.143,1.741-3.884,3.884-3.884h0.268V8.975z"/>
<path fill="#047350" fill-opacity="0.84" d="M19.418,6.696c-1.607,0-3.08-1.473-3.08-3.348S17.678,0,19.418,0
	c1.741,0,3.08,1.473,3.08,3.348S21.025,6.696,19.418,6.696z M19.418,1.339c-0.938,0-1.74,0.938-1.74,2.009s0.803,2.009,1.74,2.009
	s1.741-0.938,1.741-2.009S20.355,1.339,19.418,1.339z"/>
<path fill="#047350" fill-opacity="0.84" d="M20.625,5.09h0.268c1.741,0,3.215,1.473,3.215,3.215v2.276
	c0,0.401-0.268,0.669-0.67,0.669s-0.67-0.268-0.67-0.669V8.305c0-1.072-0.803-1.875-1.875-1.875h-0.268V5.09z"/>
<path fill="#047350" fill-opacity="0.84" d="M18.213,6.429h-0.268c-1.072,0-1.875,0.804-1.875,1.875c0,0.401-0.269,0.669-0.67,0.669
	c-0.402,0-0.67-0.268-0.67-0.669c0-1.742,1.473-3.215,3.215-3.215h0.268V6.429z"/>
<path fill="#047350" fill-opacity="0.84" d="M4.688,6.696c-1.607,0-3.081-1.473-3.081-3.348S2.947,0,4.688,0
	c1.741,0,3.08,1.473,3.08,3.348S6.295,6.696,4.688,6.696z M4.688,1.339c-0.938,0-1.741,0.938-1.741,2.009S3.75,5.357,4.688,5.357
	s1.741-0.938,1.741-2.009S5.625,1.339,4.688,1.339z"/>
<path fill="#047350" fill-opacity="0.84" d="M5.895,5.09h0.268c1.741,0,3.214,1.473,3.214,3.215c0,0.401-0.268,0.669-0.669,0.669
	S8.038,8.706,8.038,8.305c0-1.072-0.804-1.875-1.875-1.875H5.895V5.09z"/>
<path fill="#047350" fill-opacity="0.84" d="M3.482,6.429H3.214c-1.071,0-1.875,0.804-1.875,1.875v2.276
	c0,0.401-0.268,0.669-0.67,0.669C0.268,11.25,0,10.982,0,10.581V8.305C0,6.563,1.473,5.09,3.214,5.09h0.268V6.429z"/>
</svg>
