<svg width="19" height="16" viewBox="0 0 19 16" fill="none" xmlns="http://www.w3.org/2000/svg">
<path d="M9.50163 16L8.12397 14.8459C3.23033 10.7758 0 8.09167 0 4.79734C0.016225 4.1448 0.164867 3.50196 0.437257 2.9063C0.709647 2.31064 1.10033 1.77409 1.58653 1.32794C2.07273 0.881785 2.64471 0.534959 3.26911 0.307687C3.89352 0.0804144 4.55785 -0.0227559 5.22337 0.00419261C6.02535 0.00464311 6.81868 0.166518 7.55419 0.479781C8.28971 0.793045 8.95172 1.25102 9.49918 1.82532C10.0468 1.25082 10.7091 0.792734 11.4449 0.479463C12.1807 0.166193 12.9744 0.00442403 13.7766 0.00419261C14.4421 -0.0227559 15.1065 0.0804144 15.7309 0.307687C16.3553 0.534959 16.9273 0.881785 17.4135 1.32794C17.8997 1.77409 18.2904 2.31064 18.5627 2.9063C18.8351 3.50196 18.9838 4.1448 19 4.79734C19 8.09167 15.7697 10.7758 10.876 14.8547L9.50163 16Z" fill="#B9B1A7"/>
</svg>
