<?xml version="1.0" encoding="utf-8"?>
<!-- Generator: Adobe Illustrator 16.0.0, SVG Export Plug-In . SVG Version: 6.00 Build 0)  -->
<!DOCTYPE svg PUBLIC "-//W3C//DTD SVG 1.1//EN" "http://www.w3.org/Graphics/SVG/1.1/DTD/svg11.dtd">
<svg version="1.1" id="Layer_1" xmlns="http://www.w3.org/2000/svg" xmlns:xlink="http://www.w3.org/1999/xlink" x="0px" y="0px"
	 width="24px" height="15px" viewBox="-5.938 0 24 15" enable-background="new -5.938 0 24 15" xml:space="preserve">
<path fill="none" stroke="#2C8A6C" d="M6.712,13.695C6.5,13.93,6.316,14.128,6.171,14.281c-0.145-0.153-0.329-0.352-0.542-0.586
	c-0.541-0.6-1.26-1.437-1.979-2.394c-0.719-0.959-1.43-2.027-1.959-3.089c-0.53-1.063-0.856-2.077-0.86-2.944
	c0.078-1.332,0.678-2.58,1.67-3.472c0.996-0.895,2.306-1.359,3.643-1.29l0.026,0.001l0.025-0.001
	c1.337-0.069,2.647,0.395,3.643,1.29c0.992,0.892,1.593,2.14,1.67,3.472c-0.003,0.868-0.329,1.882-0.859,2.946
	c-0.529,1.061-1.24,2.129-1.959,3.088C7.973,12.26,7.253,13.098,6.712,13.695z M3.587,5.226L3.585,5.255l0.002,0.028
	c0.037,0.656,0.333,1.271,0.821,1.71c0.483,0.434,1.115,0.662,1.763,0.636c0.647,0.026,1.28-0.202,1.762-0.636
	c0.489-0.439,0.785-1.054,0.822-1.71l0.002-0.028L8.756,5.226C8.719,4.57,8.423,3.956,7.934,3.516
	C7.451,3.083,6.819,2.854,6.171,2.88c-0.648-0.026-1.28,0.202-1.763,0.636C3.919,3.956,3.624,4.57,3.587,5.226z"/>
</svg>
