<svg xmlns="http://www.w3.org/2000/svg" width="234.77" height="44.98" viewBox="8.58 9.44 234.77 44.98"><path fill="#514C4C" d="M71.8 27.49v-2.41h-8.37V39h3.21v-5.55h4.64v-2.32h-4.64v-3.64h5.16zm10.98 9.01V25.08h-3.3V39h8.62v-2.5h-5.32zm20.38-11.42h-5.08L94.53 39h3.05l.78-3.27h4.27l.8 3.27h3.3l-3.57-13.92zm-1.14 8.16h-3.05l1.09-4.41c.16-.63.3-1.27.4-1.91h.1c.09.64.23 1.28.4 1.9l1.06 4.41zm20.96-8.16h-10.7v2.59h3.74V39h3.21V27.67h3.75v-2.6zm11.95 7.07h-5v2.5h5v-2.5zM142.87 34.8c.37 2.92 2.23 4.4 5.51 4.4 3.14 0 5.02-1.66 5.02-4.25 0-2.29-1.25-3.4-4.21-4.34-2-.64-2.66-1.14-2.66-2.09 0-.85.5-1.42 1.4-1.42 1.19 0 1.85.87 1.97 2.55l3.18-.66c-.4-2.66-2.14-4.09-5-4.09-2.82 0-4.68 1.57-4.68 4.2 0 2.12 1.3 3.35 3.84 4.24 2.2.77 2.8 1.16 2.8 2.16 0 .9-.62 1.32-1.46 1.32-1.48 0-2.2-.85-2.43-2.42l-3.28.4zm21.6 1.79v-3.48h4.64v-2.32h-4.64v-3.3h5.16v-2.41h-8.37V39h8.53v-2.41h-5.32zm20.56-11.51h-5.09L176.4 39h3.05l.79-3.27h4.26l.8 3.27h3.31l-3.57-13.92zm-1.14 8.16h-3.05l1.08-4.41c.17-.63.3-1.27.42-1.91h.08c.1.64.24 1.28.4 1.9l1.07 4.41zM206.47 39l-3-6.1c1.37-.6 2.23-1.75 2.23-3.73 0-2.79-2.03-4.1-4.9-4.1h-4.7V39h3.21v-5.09h1.34l2.09 5.09h3.73zm-7.16-11.6h1.14c1.27 0 2.04.68 2.04 2.1 0 1.49-.77 2.04-2.04 2.04h-1.14V27.4zm21.6 6.7c-.28 1.97-.9 2.76-2.14 2.76-1.47 0-2.4-2.05-2.4-4.95 0-3.01.85-4.69 2.3-4.69 1.3 0 1.97.88 2.15 2.84l3.32-.75c-.5-2.84-2.4-4.41-5.3-4.41-3.6 0-5.86 2.73-5.86 7.14 0 4.73 2.06 7.14 6.02 7.14 2.86 0 4.57-1.48 5.34-4.64l-3.43-.43zm19.14-9.02v5.53h-4.64v-5.53h-3.3V39h3.3v-5.8h4.64V39h3.3V25.08h-3.3z"/><path fill="none" stroke="#FFAE00" stroke-width="1.09" d="M48 16.67c-9.26-8.47-24.98-9.2-33.5 0M48.23 47.13c-8.11 8.76-22.2 9-31.46.53-9.26-8.46-10.2-22.43-2.09-31.2"/><path fill="#FFAE00" stroke="#FFF" stroke-width=".39" d="M20.34 24.2h10.13c.7 0 1.28.57 1.28 1.28v5.29c0 .7-.57 1.28-1.28 1.28H20.34c-.7 0-1.28-.57-1.28-1.28v-5.3c0-.7.58-1.27 1.28-1.27z"/><path fill="#FFAE00" stroke="#FFF" stroke-width=".39" d="M32.82 24.2h10.13c.7 0 1.28.57 1.28 1.28v5.29c0 .7-.57 1.28-1.28 1.28H32.82c-.7 0-1.28-.57-1.28-1.28v-5.3c0-.7.57-1.27 1.28-1.27z"/><path fill="#FFAE00" d="M41.53 41.53c.47 0 .86-.4.86-.9s-.39-.9-.86-.9-.86.4-.86.9.39.9.86.9zM22.27 41.53c.47 0 .85-.4.85-.9s-.38-.9-.86-.9-.85.4-.85.9.38.9.86.9z"/><path fill="#FFAE00" stroke="#FFF" stroke-width=".39" d="M19.23 31.1h25.32v4.07H19.23V31.1z"/><path fill="#FFAE00" stroke="#FFF" stroke-width=".39" d="M46.85 32.63a1.96 1.96 0 0 0 1.33-1.21 2.05 2.05 0 0 0-1.05-2.63 1.9 1.9 0 0 0-2.51 1.12c-.09.23-.13.46-.14.7l-.01.03-2.02 4.54H21.21a242.7 242.7 0 0 0-2.83-5.36 1.9 1.9 0 0 0-2.46-1.03 2.05 2.05 0 0 0-1.06 2.63c.26.67.82 1.12 1.45 1.24l1.8 4.67c-.06.14-.1.3-.1.45 0 .76.78 1.38 1.77 1.44H43.7l.18.01c1.06 0 1.92-.65 1.92-1.44 0-.23-.07-.44-.19-.63.38-1.34.98-3.47 1.24-4.53z"/></svg>