<svg xmlns="http://www.w3.org/2000/svg" width="24" height="15"><path fill="#047350" d="M12 9.4c-2 0-3.6-1.8-3.6-4 0-2.3 1.6-4 3.7-4 2 0 3.6 1.7 3.6 4 0 2.2-1.6 4-3.6 4zm0-6.7c-1.2 0-2.2 1.2-2.2 2.7 0 1.4 1 2.6 2.3 2.6 1.3 0 2.2-1.2 2.2-2.6 0-1.5-1-2.7-2.2-2.7z"/><path fill="#047350" d="M13.5 7.6h.3c2.1 0 3.9 1.8 3.9 4v2.7c0 .4-.3.7-.7.7-.4 0-.7-.3-.7-.7v-2.8c0-1.3-1.2-2.5-2.5-2.5h-.3V7.6zM10.6 9h-.3a2.6 2.6 0 0 0-2.5 2.5v2.8c0 .4-.3.7-.7.7-.4 0-.7-.3-.7-.7v-2.8c0-2.1 1.8-3.9 4-3.9h.2V9zM19.4 6.7c-1.6 0-3-1.5-3-3.4s1.3-3.3 3-3.3c1.8 0 3.1 1.5 3.1 3.3s-1.5 3.4-3 3.4zm0-5.4c-1 0-1.7 1-1.7 2s.8 2 1.7 2 1.8-.9 1.8-2-.8-2-1.8-2z"/><path fill="#047350" d="M20.6 5h.3C22.6 5 24 6.7 24 8.4v2.3c0 .4-.3.6-.7.6s-.6-.2-.6-.6V8.3c0-1-.8-1.9-2-1.9h-.2V5.1zM18.2 6.4H18c-1 0-1.8.8-1.8 1.9 0 .4-.3.7-.7.7-.4 0-.7-.3-.7-.7 0-1.7 1.5-3.2 3.2-3.2h.3v1.3zM4.7 6.7c-1.6 0-3-1.5-3-3.4S2.8 0 4.6 0c1.7 0 3 1.5 3 3.3s-1.4 3.4-3 3.4zm0-5.4c-1 0-1.8 1-1.8 2s.9 2 1.8 2 1.7-.9 1.7-2-.8-2-1.7-2z"/><path fill="#047350" d="M5.9 5h.3c1.7 0 3.2 1.6 3.2 3.3 0 .4-.3.7-.7.7S8 8.7 8 8.3c0-1-.8-1.9-1.8-1.9h-.3V5.1zM3.5 6.4h-.3c-1 0-1.9.8-1.9 1.9v2.3c0 .4-.2.6-.6.6-.4 0-.7-.2-.7-.6V8.3c0-1.7 1.5-3.2 3.2-3.2h.3v1.3z"/></svg>