<svg xmlns="http://www.w3.org/2000/svg" width="26" height="22" viewBox="3.7 2.5 26 22"><path fill="#726F68" d="M27 24.5H6.6a2.4 2.4 0 0 1-2.3-2.4V5a2.4 2.4 0 0 1 2.3-2.4h6.2a2.4 2.4 0 0 1 2.3 2.4v1.5c0 .5.4.8.8.8h11a2.4 2.4 0 0 1 2.2 2.4V22a2.4 2.4 0 0 1-2.3 2.4zM6.6 4.1a.8.8 0 0 0-.8.8V22c0 .5.3.8.8.8h20.2c.5 0 .8-.3.8-.8V9.6c0-.5-.3-.8-.8-.8H16a2.4 2.4 0 0 1-2.3-2.4V5c0-.5-.3-.8-.8-.8H6.7z"/><path fill="#726F68" stroke="none" stroke-width=".4" d="M14 18.2h.1c.9.8 2.2.8 3 0l5-4.8a.5.5 0 0 0 .2-.4.6.6 0 0 0-.1-.4l-.2.2.2-.2a.6.6 0 0 0-.9 0l-5 4.8-.7.2c-.3 0-.5 0-.7-.2l-2.1-2a.6.6 0 0 0-.8 0 .6.6 0 0 0-.2.4c0 .2 0 .3.2.4l2 2z"/></svg>