<svg width="26" height="22" viewBox="0 0 26 22" fill="none" xmlns="http://www.w3.org/2000/svg">
<path d="M21.2204 22H4.83318C3.7407 22 2.78478 20.9524 2.78478 19.7551V12.2721C2.78478 11.8231 2.51166 11.5238 2.10198 11.5238H0.736374C0.463254 11.5238 0.190133 11.3742 0.0535732 11.0748C-0.0829869 10.7755 0.0535729 10.4762 0.326693 10.1769L11.7977 0.44898C12.4805 -0.14966 13.573 -0.14966 14.2558 0.44898L25.7269 10.1769C26 10.3265 26 10.7755 26 11.0748C25.8634 11.3742 25.5903 11.5238 25.3172 11.5238H23.9516C23.5419 11.5238 23.2688 11.8231 23.2688 12.2721V19.7551C23.2688 20.9524 22.3129 22 21.2204 22ZM2.64822 10.0272C3.46758 10.3265 4.15038 11.2245 4.15038 12.1224V19.6054C4.15038 20.0544 4.4235 20.3537 4.83318 20.3537H21.2204C21.6301 20.3537 21.9032 20.0544 21.9032 19.6054V12.1224C21.9032 11.0748 22.586 10.1769 23.4054 10.0272L13.4365 1.4966C13.1633 1.34694 12.8902 1.34694 12.6171 1.4966L2.64822 10.0272Z" fill="#726F68"/>
<path d="M5.46241 9.72789V2.2449C5.46241 1.79592 5.18929 1.4966 4.7796 1.4966H2.0484C1.63872 1.4966 1.3656 1.79592 1.3656 2.2449V9.72789H0V2.2449C0 1.04762 0.955921 -5.70907e-07 2.0484 -5.70907e-07H4.7796C5.87209 -5.70907e-07 6.82801 1.04762 6.82801 2.2449V9.72789H5.46241Z" transform="translate(9.61328 11.5244)" fill="#726F68"/>
</svg>
