<svg xmlns="http://www.w3.org/2000/svg" width="26" height="22" viewBox="-2 0 26 22"><path fill="#726F68" d="M8.8 16.13c-.15 0-.44 0-.59-.14a.7.7 0 0 1-.04-.99l.04-.04 3.82-3.81L8.2 7.33a.7.7 0 0 1 0-1.02.7.7 0 0 1 1.03 0l4.4 4.4c.3.29.3.73 0 1.02l-4.4 4.4H8.8z"/><path fill="#726F68" d="M12.47 11.73H.73C.3 11.73 0 11.44 0 11s.3-.73.73-.73h11.74c.44 0 .73.29.73.73s-.3.73-.73.73z"/><path fill="#726F68" d="M18.33 22h-8.8a.7.7 0 0 1-.73-.73c0-.44.3-.74.73-.74h8.8c1.18 0 2.2-1.02 2.2-2.2V3.67c0-1.18-1.02-2.2-2.2-2.2h-8.8c-.44 0-.73-.3-.73-.74S9.1 0 9.53 0h8.8c2-.02 3.65 1.58 3.67 3.59v14.74c.02 2-1.58 3.65-3.59 3.67h-.08z"/></svg>