<svg width="26" height="26" viewBox="0 0 26 26" fill="none" xmlns="http://www.w3.org/2000/svg">
<path d="M25.492 13C25.492 19.8992 19.8992 25.492 13 25.492C6.10084 25.492 0.50796 19.8992 0.50796 13C0.50796 6.10084 6.10084 0.50796 13 0.50796C19.8992 0.50796 25.492 6.10084 25.492 13Z" stroke="#726F68" stroke-width="1.01592"/>
<path d="M10.1401 7.99281C10.5028 7.65974 10.7918 7.25796 10.9895 6.81214C11.1871 6.36632 11.2891 5.88586 11.2894 5.40023V3.59767C11.2706 2.63727 10.8659 1.72237 10.1622 1.04962C9.45856 0.376877 8.51208 0 7.52625 0C6.54041 0 5.59393 0.376877 4.89024 1.04962C4.18656 1.72237 3.78186 2.63727 3.76312 3.59767V5.40089C3.76343 5.88635 3.86546 6.36663 4.06296 6.81232C4.26046 7.25801 4.54927 7.65971 4.9117 7.99281C2.04433 8.42061 0 9.5285 0 10.8231V12.0105C0.00204418 12.2492 0.0523259 12.4852 0.147974 12.705C0.243622 12.9248 0.382764 13.124 0.557453 13.2914C0.732142 13.4588 0.938958 13.591 1.16609 13.6805C1.39322 13.77 1.63623 13.8151 1.88122 13.813H13.1706C13.4156 13.8151 13.6586 13.77 13.8857 13.6805C14.1129 13.591 14.3197 13.4588 14.4944 13.2914C14.669 13.124 14.8082 12.9248 14.9038 12.705C14.9995 12.4852 15.0498 12.2492 15.0518 12.0105V10.8278C15.0525 9.53512 13.0082 8.42193 10.1401 7.99281Z" transform="translate(5.49219 5.29785)" fill="#726F68"/>
</svg>
