<svg width="25" height="22" fill="none" xmlns="http://www.w3.org/2000/svg"><path d="M22.54 22H2.34A2.4 2.4 0 0 1 0 19.64V2.36A2.4 2.4 0 0 1 2.33 0h6.22a2.4 2.4 0 0 1 2.33 2.36v1.57c0 .47.31.78.78.78h10.88a2.4 2.4 0 0 1 2.33 2.36v12.57A2.4 2.4 0 0 1 22.54 22zM2.34 1.57c-.47 0-.79.32-.79.79v17.28c0 .47.32.79.78.79h20.2c.47 0 .79-.32.79-.79V7.07c0-.47-.32-.78-.78-.78H11.66a2.4 2.4 0 0 1-2.33-2.36V2.36c0-.47-.31-.79-.78-.79H2.33z" fill="#726F68"/><path d="M9.7 15.72h.02a2.37 2.37 0 0 0 3.07-.01l5-4.8c.12-.1.18-.24.18-.4 0-.14-.06-.29-.18-.4l-.14.15.14-.14a.6.6 0 0 0-.82 0l-4.98 4.78a1.5 1.5 0 0 1-.74.25c-.29 0-.54-.07-.72-.24l-2.11-1.96a.6.6 0 0 0-.82 0 .55.55 0 0 0-.18.4c0 .15.06.3.18.4l2.1 1.97z" fill="#726F68" stroke="#726F68" stroke-width=".4"/></svg>