<svg width="26" height="26" viewBox="0 0 26 26" fill="none" xmlns="http://www.w3.org/2000/svg">
<path d="M25.5 13C25.5 19.9035 19.904 25.5 13 25.5C6.09674 25.5 0.5 19.9035 0.5 13C0.5 6.0965 6.09604 0.5 13 0.5C19.904 0.5 25.5 6.0965 25.5 13Z" fill="white" stroke="#726F68"/>
<path d="M7.20585 13.0847L6.16106 12.1409C2.44982 8.81233 0 6.6173 0 3.92322C0.0123047 3.38958 0.125032 2.86387 0.331607 2.37675C0.538182 1.88962 0.834471 1.45084 1.20319 1.08598C1.57192 0.721116 2.0057 0.437485 2.47923 0.251624C2.95277 0.0657622 3.45658 -0.0186095 3.9613 0.00342868C4.5695 0.0037971 5.17115 0.136177 5.72895 0.392361C6.28675 0.648546 6.7888 1.02307 7.20399 1.49273C7.61932 1.02291 8.12158 0.648291 8.6796 0.392101C9.23762 0.135911 9.83951 0.00361794 10.4479 0.00342868C10.9526 -0.0186095 11.4565 0.0657622 11.93 0.251624C12.4035 0.437485 12.8373 0.721116 13.206 1.08598C13.5747 1.45084 13.871 1.88962 14.0776 2.37675C14.2842 2.86387 14.3969 3.38958 14.4092 3.92322C14.4092 6.6173 11.9594 8.81233 8.24817 12.148L7.20585 13.0847Z" transform="translate(5.76367 6.92725)" fill="#726F68"/>
</svg>
