<svg width="29" height="22" viewBox="0 0 29 22" fill="none" xmlns="http://www.w3.org/2000/svg">
<path d="M23.256 22H5.29681C4.09953 22 3.05191 20.9524 3.05191 19.7551V12.2721C3.05191 11.8231 2.75259 11.5238 2.30361 11.5238H0.807012C0.507692 11.5238 0.208372 11.3742 0.0587123 11.0748C-0.0909476 10.7755 0.058712 10.4762 0.358032 10.1769L12.9295 0.44898C13.6778 -0.14966 14.875 -0.14966 15.6233 0.44898L28.1948 10.1769C28.4941 10.3265 28.4941 10.7755 28.4941 11.0748C28.3444 11.3742 28.0451 11.5238 27.7458 11.5238H26.2492C25.8002 11.5238 25.5009 11.8231 25.5009 12.2721V19.7551C25.5009 20.9524 24.4533 22 23.256 22ZM2.90225 10.0272C3.80021 10.3265 4.54851 11.2245 4.54851 12.1224V19.6054C4.54851 20.0544 4.84783 20.3537 5.29681 20.3537H23.256C23.705 20.3537 24.0043 20.0544 24.0043 19.6054V12.1224C24.0043 11.0748 24.7526 10.1769 25.6506 10.0272L14.7254 1.4966C14.4261 1.34694 14.1267 1.34694 13.8274 1.4966L2.90225 10.0272Z" fill="#FFAE00"/>
<path d="M5.98639 9.72789V2.2449C5.98639 1.79592 5.68707 1.4966 5.2381 1.4966H2.2449C1.79592 1.4966 1.4966 1.79592 1.4966 2.2449V9.72789H0V2.2449C0 1.04762 1.04762 -5.70907e-07 2.2449 -5.70907e-07H5.2381C6.43537 -5.70907e-07 7.48299 1.04762 7.48299 2.2449V9.72789H5.98639Z" transform="translate(10.5352 11.5244)" fill="#FFAE00"/>
</svg>
