<svg width="26" height="22" fill="none" xmlns="http://www.w3.org/2000/svg"><path d="M21.2 22H4.8c-1 0-2-1-2-2.2v-7.5c0-.5-.3-.8-.7-.8H.7a.7.7 0 0 1-.6-.4c-.2-.3 0-.6.2-1L11.8.5a2 2 0 0 1 2.5 0l11.4 9.8c.3.1.3.6.3.9-.1.3-.4.4-.7.4H24c-.5 0-.7.3-.7.8v7.5c0 1.2-1 2.2-2 2.2zM2.6 10c.9.3 1.6 1.2 1.6 2.1v7.5c0 .5.2.8.6.8h16.4c.4 0 .7-.3.7-.8v-7.5c0-1 .7-2 1.5-2l-10-8.6a.8.8 0 0 0-.8 0L2.6 10z" fill="#FFAE00"/><path d="M15 21.3v-7.5c0-.5-.2-.8-.6-.8h-2.7c-.4 0-.7.3-.7.8v7.5H9.6v-7.5c0-1.2 1-2.3 2-2.3h2.8c1 0 2 1 2 2.3v7.5h-1.3z" fill="#FFAE00"/></svg>