<svg width="22" height="22" viewBox="0 0 22 22" fill="none" xmlns="http://www.w3.org/2000/svg">
<path d="M0.806666 10.0467C0.659999 10.0467 0.366667 10.0467 0.22 9.9C-0.0733333 9.60667 -0.0733333 9.16667 0.22 8.87334L4.03333 5.06L0.22 1.24667C-0.0733333 0.953334 -0.0733333 0.513333 0.22 0.22C0.513333 -0.0733333 0.953332 -0.0733333 1.24666 0.22L5.64667 4.62C5.94 4.91333 5.94 5.35333 5.64667 5.64667L1.24666 10.0467C1.24666 10.0467 0.953333 10.0467 0.806666 10.0467Z" transform="translate(7.99219 6.08643)" fill="#726F68"/>
<path d="M12.4667 1.46667H0.733333C0.293333 1.46667 0 1.17333 0 0.733333C0 0.293333 0.293333 0 0.733333 0H12.4667C12.9067 0 13.2 0.293333 13.2 0.733333C13.2 1.17333 12.9067 1.46667 12.4667 1.46667Z" transform="translate(0 10.2666)" fill="#726F68"/>
<path d="M9.53333 22H0.733333C0.293333 22 0 21.7067 0 21.2667C0 20.8267 0.293333 20.5333 0.733333 20.5333H9.53333C10.7067 20.5333 11.7333 19.5067 11.7333 18.3333V3.66667C11.7333 2.49333 10.7067 1.46667 9.53333 1.46667H0.733333C0.293333 1.46667 0 1.17333 0 0.733333C0 0.293333 0.293333 0 0.733333 0H9.53333C11.5867 0 13.2 1.61333 13.2 3.66667V18.3333C13.2 20.3867 11.5867 22 9.53333 22Z" transform="translate(8.80078)" fill="#726F68"/>
</svg>
