<svg width="309" height="79" viewBox="0 0 309 79" fill="none" xmlns="http://www.w3.org/2000/svg">
<path d="M10.431 4.745V2.18H1.52V17H4.94V11.091H9.88V8.621H4.94V4.745H10.431ZM22.1224 14.34V2.18H18.6074V17H27.7844V14.34H22.1224ZM43.8205 2.18H38.4055L34.6245 17H37.8735L38.7095 13.523H43.2505L44.1055 17H47.6205L43.8205 2.18ZM42.6045 10.863H39.3555L40.5145 6.17C40.6855 5.505 40.8375 4.821 40.9515 4.137H41.0465C41.1415 4.821 41.2935 5.505 41.4645 6.17L42.6045 10.863ZM64.9162 2.18H53.5162V4.935H57.5062V17H60.9262V4.935H64.9162V2.18ZM72.1295 12.535C72.5285 15.632 74.5045 17.209 78.0005 17.209C81.3445 17.209 83.3395 15.442 83.3395 12.687C83.3395 10.255 82.0095 9.077 78.8555 8.07C76.7275 7.386 76.0245 6.854 76.0245 5.847C76.0245 4.935 76.5565 4.327 77.5255 4.327C78.7795 4.327 79.4825 5.258 79.6155 7.044L82.9975 6.341C82.5795 3.51 80.7175 1.99 77.6775 1.99C74.6755 1.99 72.6995 3.662 72.6995 6.455C72.6995 8.716 74.0865 10.027 76.7845 10.977C79.1215 11.794 79.7675 12.212 79.7675 13.276C79.7675 14.226 79.1025 14.682 78.2095 14.682C76.6325 14.682 75.8725 13.77 75.6255 12.098L72.1295 12.535ZM95.1269 14.435V10.73H100.067V8.26H95.1269V4.745H100.618V2.18H91.7069V17H100.789V14.435H95.1269ZM117.013 2.18H111.598L107.817 17H111.066L111.902 13.523H116.443L117.298 17H120.813L117.013 2.18ZM115.797 10.863H112.548L113.707 6.17C113.878 5.505 114.03 4.821 114.144 4.137H114.239C114.334 4.821 114.486 5.505 114.657 6.17L115.797 10.863ZM139.834 17L136.642 10.502C138.105 9.875 139.017 8.64 139.017 6.531C139.017 3.567 136.851 2.18 133.792 2.18H128.795V17H132.215V11.585H133.64L135.863 17H139.834ZM132.215 4.65H133.431C134.78 4.65 135.597 5.372 135.597 6.892C135.597 8.469 134.78 9.058 133.431 9.058H132.215V4.65ZM155.21 11.794C154.906 13.884 154.26 14.72 152.93 14.72C151.372 14.72 150.384 12.535 150.384 9.457C150.384 6.246 151.277 4.46 152.816 4.46C154.203 4.46 154.925 5.391 155.115 7.481L158.649 6.683C158.117 3.662 156.103 1.99 153.006 1.99C149.168 1.99 146.774 4.897 146.774 9.59C146.774 14.625 148.959 17.19 153.177 17.19C156.217 17.19 158.041 15.613 158.858 12.25L155.21 11.794ZM175.581 2.18V8.07H170.641V2.18H167.126V17H170.641V10.825H175.581V17H179.096V2.18H175.581ZM189.661 13.162C188.521 13.162 187.647 14.074 187.647 15.157C187.647 16.278 188.521 17.19 189.661 17.19C190.782 17.19 191.675 16.202 191.675 15.157C191.675 14.074 190.782 13.162 189.661 13.162ZM207.492 11.794C207.188 13.884 206.542 14.72 205.212 14.72C203.654 14.72 202.666 12.535 202.666 9.457C202.666 6.246 203.559 4.46 205.098 4.46C206.485 4.46 207.207 5.391 207.397 7.481L210.931 6.683C210.399 3.662 208.385 1.99 205.288 1.99C201.45 1.99 199.056 4.897 199.056 9.59C199.056 14.625 201.241 17.19 205.459 17.19C208.499 17.19 210.323 15.613 211.14 12.25L207.492 11.794ZM228.756 2.18H218.648V4.992H222.524C223.683 4.992 224.291 4.935 224.899 4.821V4.878L218.648 14.188V17H228.756V14.188H224.709C223.55 14.188 222.942 14.283 222.334 14.454V14.397L228.756 4.992V2.18Z" transform="translate(73 31)" fill="#514C4C"/>
<path d="M28.3876 28.385C28.3876 12.7084 15.678 0 0 0" transform="translate(18.0488 20.9033) scale(0.999457 1.00054) rotate(-47.3944)" stroke="#FFAE00" stroke-width="1.35937"/>
<path d="M27.0195 56.77C12.097 56.77 0 44.0616 0 28.385C0 12.7084 12.097 0 27.0195 0" transform="translate(0 40.5449) scale(0.999457 1.00054) rotate(-47.3944)" stroke="#FFAE00" stroke-width="1.35937"/>
<path d="M1.83701 0.244935H14.4537C15.333 0.244935 16.0458 0.957731 16.0458 1.83701V8.50461C16.0458 9.38389 15.333 10.0967 14.4537 10.0967H1.83701C0.957731 10.0967 0.244935 9.38389 0.244935 8.50461V1.83701C0.244935 0.957731 0.957731 0.244935 1.83701 0.244935Z" transform="translate(23.4824 30.0957)" fill="#FFAE00" stroke="white" stroke-width="0.489869"/>
<path d="M1.83701 0.244935H14.4537C15.333 0.244935 16.0458 0.957731 16.0458 1.83701V8.50461C16.0458 9.38389 15.333 10.0967 14.4537 10.0967H1.83701C0.957731 10.0967 0.244935 9.38389 0.244935 8.50461V1.83701C0.244935 0.957731 0.957731 0.244935 1.83701 0.244935Z" transform="translate(39.0176 30.0957)" fill="#FFAE00" stroke="white" stroke-width="0.489869"/>
<path fill-rule="evenodd" clip-rule="evenodd" d="M1.06644 2.24969C1.65541 2.24969 2.13287 1.74608 2.13287 1.12484C2.13287 0.50361 1.65541 0 1.06644 0C0.477459 0 0 0.50361 0 1.12484C0 1.74608 0.477459 2.24969 1.06644 2.24969Z" transform="translate(50.6348 49.8252)" fill="#FFAE00"/>
<path fill-rule="evenodd" clip-rule="evenodd" d="M1.06644 2.24969C1.65541 2.24969 2.13287 1.74608 2.13287 1.12484C2.13287 0.50361 1.65541 0 1.06644 0C0.477459 0 0 0.50361 0 1.12484C0 1.74608 0.477459 2.24969 1.06644 2.24969Z" transform="translate(26.6523 49.8252)" fill="#FFAE00"/>
<path fill-rule="evenodd" clip-rule="evenodd" d="M0 0H31.5256V5.09126H0V0Z" transform="translate(23.9355 39.0059)" fill="#FFAE00" stroke="white" stroke-width="0.489869"/>
<path fill-rule="evenodd" clip-rule="evenodd" d="M40.0083 4.99402C40.731 4.80456 41.3619 4.26257 41.6646 3.47644C42.1626 2.17761 41.5747 0.703 40.3501 0.182492C39.1255 -0.338016 37.729 0.292844 37.229 1.59265C37.1236 1.86902 37.0669 2.15417 37.0552 2.43542C37.0435 2.47546 37.0396 2.50085 37.0396 2.50085L34.5279 8.19812H8.08842C6.93998 5.94421 5.21342 2.57702 4.71928 1.71277C4.67435 1.63269 4.62357 1.56042 4.56889 1.49206C4.03568 0.264523 2.68217 -0.318484 1.49076 0.187375C0.266151 0.707883 -0.321739 2.18249 0.178261 3.4823C0.498573 4.32019 1.19389 4.87976 1.97514 5.0321L4.22709 10.8915C4.14896 11.0702 4.10795 11.2606 4.10795 11.4589C4.10795 12.411 5.0767 13.1971 6.30717 13.2714L6.43412 13.2723L6.49857 13.2714H36.1255L36.3033 13.2762C37.6255 13.2762 38.6958 12.4647 38.6958 11.4637C38.6958 11.1835 38.6119 10.9178 38.4615 10.6805C38.9361 8.99597 39.6822 6.328 40.0083 4.99402Z" transform="translate(18.3223 35.917)" fill="#FFAE00" stroke="white" stroke-width="0.489869"/>
</svg>
