<?xml version="1.0" encoding="utf-8"?>
<!-- Generator: Adobe Illustrator 16.0.0, SVG Export Plug-In . SVG Version: 6.00 Build 0)  -->
<!DOCTYPE svg PUBLIC "-//W3C//DTD SVG 1.1//EN" "http://www.w3.org/Graphics/SVG/1.1/DTD/svg11.dtd">
<svg version="1.1" id="Layer_1" xmlns="http://www.w3.org/2000/svg" xmlns:xlink="http://www.w3.org/1999/xlink" x="0px" y="0px"
	 width="234.771px" height="44.984px" viewBox="8.578 9.438 234.771 44.984" enable-background="new 8.578 9.438 234.771 44.984"
	 xml:space="preserve">
<path fill="#514C4C" d="M71.799,27.488v-2.409h-8.371V39h3.213v-5.551h4.641v-2.32h-4.641v-3.641H71.799z M82.781,36.502V25.079
	h-3.302V39H88.1v-2.498H82.781z M103.164,25.079h-5.086L94.525,39h3.052l0.786-3.266h4.266L103.432,39h3.302L103.164,25.079z
	 M102.021,33.235H98.97l1.088-4.409c0.161-0.625,0.304-1.267,0.411-1.91h0.089c0.089,0.643,0.232,1.285,0.393,1.91L102.021,33.235z
	 M122.98,25.079h-10.709v2.588h3.748V39h3.213V27.667h3.748V25.079z M134.933,32.146h-4.997v2.498h4.997V32.146z"/>
<path fill="#514C4C" d="M142.868,34.806c0.374,2.909,2.231,4.391,5.515,4.391c3.142,0,5.016-1.659,5.016-4.248
	c0-2.284-1.25-3.391-4.213-4.337c-1.998-0.643-2.658-1.142-2.658-2.088c0-0.857,0.499-1.428,1.41-1.428
	c1.178,0,1.838,0.875,1.963,2.552l3.177-0.66c-0.393-2.659-2.142-4.087-4.997-4.087c-2.82,0-4.677,1.571-4.677,4.194
	c0,2.124,1.303,3.355,3.837,4.248c2.195,0.768,2.803,1.16,2.803,2.16c0,0.893-0.625,1.32-1.464,1.32
	c-1.481,0-2.195-0.856-2.427-2.428L142.868,34.806z M164.471,36.59V33.11h4.641v-2.32h-4.641v-3.302h5.158v-2.409h-8.371V39h8.532
	v-2.41H164.471z M185.03,25.079h-5.087L176.392,39h3.052l0.785-3.266h4.266L185.298,39h3.302L185.03,25.079z M183.888,33.235h-3.052
	l1.088-4.409c0.161-0.625,0.305-1.267,0.411-1.91h0.089c0.09,0.643,0.232,1.285,0.393,1.91L183.888,33.235z M206.467,39
	l-2.998-6.104c1.375-0.59,2.231-1.75,2.231-3.731c0-2.784-2.035-4.087-4.908-4.087h-4.694V39h3.213v-5.087h1.338L202.737,39H206.467
	z M199.311,27.399h1.143c1.267,0,2.034,0.678,2.034,2.106c0,1.481-0.768,2.035-2.034,2.035h-1.143V27.399z M220.911,34.109
	c-0.286,1.963-0.893,2.749-2.142,2.749c-1.464,0-2.393-2.053-2.393-4.944c0-3.016,0.84-4.694,2.285-4.694
	c1.303,0,1.981,0.875,2.16,2.838l3.319-0.75c-0.5-2.838-2.392-4.409-5.301-4.409c-3.605,0-5.854,2.731-5.854,7.139
	c0,4.73,2.053,7.14,6.016,7.14c2.855,0,4.568-1.481,5.336-4.641L220.911,34.109z M240.047,25.079v5.533h-4.641v-5.533h-3.301V39
	h3.301v-5.801h4.641V39h3.303V25.079H240.047z"/>
<path fill="none" stroke="#FFAE00" stroke-width="1.0949" d="M48,16.668C38.737,8.2,23.019,7.463,14.498,16.67"/>
<path fill="none" stroke="#FFAE00" stroke-width="1.0949" d="M48.23,47.131c-8.11,8.764-22.194,9.002-31.457,0.534
	c-9.264-8.468-10.199-22.437-2.089-31.199"/>
<path fill="#FFAE00" stroke="#FFFFFF" stroke-width="0.3946" d="M20.343,24.197h10.126c0.708,0,1.282,0.574,1.282,1.282v5.288
	c0,0.708-0.574,1.283-1.282,1.283H20.343c-0.708,0-1.282-0.574-1.282-1.283v-5.288C19.061,24.771,19.635,24.197,20.343,24.197z"/>
<path fill="#FFAE00" stroke="#FFFFFF" stroke-width="0.3946" d="M32.821,24.197h10.126c0.708,0,1.282,0.574,1.282,1.282v5.288
	c0,0.708-0.574,1.283-1.282,1.283H32.821c-0.708,0-1.282-0.574-1.282-1.283v-5.288C31.539,24.771,32.113,24.197,32.821,24.197z"/>
<path fill="#FFAE00" d="M41.53,41.526c0.473,0,0.857-0.401,0.857-0.897c0-0.495-0.384-0.896-0.857-0.896s-0.856,0.401-0.856,0.896
	C40.674,41.125,41.057,41.526,41.53,41.526z"/>
<path fill="#FFAE00" d="M22.265,41.526c0.473,0,0.857-0.401,0.857-0.897c0-0.495-0.384-0.896-0.857-0.896s-0.856,0.401-0.856,0.896
	C21.408,41.125,21.792,41.526,22.265,41.526z"/>
<path fill="#FFAE00" stroke="#FFFFFF" stroke-width="0.3946" d="M19.227,31.105H44.55v4.061H19.227V31.105z"/>
<path fill="#FFAE00" stroke="#FFFFFF" stroke-width="0.3946" d="M46.853,32.625c0.58-0.15,1.088-0.582,1.33-1.209
	c0.4-1.037-0.072-2.213-1.055-2.627c-0.984-0.416-2.105,0.088-2.508,1.123c-0.088,0.227-0.133,0.461-0.141,0.691
	c-0.006,0.021-0.012,0.033-0.012,0.033L42.45,35.18H21.214c-0.924-1.797-2.309-4.483-2.705-5.172
	c-0.039-0.066-0.08-0.129-0.127-0.186c-0.432-0.971-1.516-1.43-2.467-1.029c-0.984,0.416-1.457,1.592-1.055,2.627
	c0.258,0.67,0.816,1.116,1.445,1.237l1.809,4.674c-0.062,0.143-0.096,0.293-0.096,0.451c0,0.758,0.775,1.383,1.764,1.443h0.055
	l0.102,0.002l0.102-0.002h23.662l0.174,0.006c1.062,0,1.922-0.648,1.922-1.445c0-0.225-0.066-0.436-0.188-0.625
	C45.991,35.816,46.589,33.688,46.853,32.625z"/>
</svg>
