<svg width="232" height="44" viewBox="0 0 232 44" fill="none" xmlns="http://www.w3.org/2000/svg">
<path d="M9.79859 4.48799V2.0785H1.42785V16H4.6405V10.4492H9.281V8.129H4.6405V4.48799H9.79859ZM20.7812 13.5013V2.0785H17.4793V16H26.0999V13.5013H20.7812ZM41.1638 2.0785H36.0771L32.5253 16H35.5773L36.3627 12.7338H40.6284L41.4315 16H44.7334L41.1638 2.0785ZM40.0215 10.2351H36.9695L38.0582 5.8266C38.2189 5.20191 38.3616 4.55938 38.4687 3.91685H38.558C38.6472 4.55938 38.79 5.20191 38.9506 5.8266L40.0215 10.2351ZM60.9805 2.0785H50.2716V4.66647H54.0197V16H57.2324V4.66647H60.9805V2.0785Z" transform="translate(0 13.5996)" fill="#514C4C"/>
<path d="M0.535442 11.8057C0.910252 14.7149 2.76645 16.1963 6.0505 16.1963C9.19176 16.1963 11.0658 14.5365 11.0658 11.9485C11.0658 9.66393 9.81644 8.55735 6.85366 7.6114C4.85468 6.96887 4.1943 6.46913 4.1943 5.52318C4.1943 4.66647 4.69404 4.09533 5.6043 4.09533C6.78227 4.09533 7.44265 4.96989 7.56758 6.64761L10.7445 5.98723C10.3519 3.32787 8.60277 1.90002 5.74708 1.90002C2.92708 1.90002 1.07088 3.47065 1.07088 6.09432C1.07088 8.21824 2.37379 9.44976 4.90822 10.3422C7.10353 11.1096 7.71037 11.5023 7.71037 12.5018C7.71037 13.3942 7.08569 13.8225 6.24683 13.8225C4.76544 13.8225 4.05151 12.9658 3.81949 11.3952L0.535442 11.8057ZM22.1386 13.5905V10.1101H26.7791V7.78988H22.1386V4.48799H27.2967V2.0785H18.9259V16H27.4573V13.5905H22.1386ZM42.6976 2.0785H37.6109L34.0591 16H37.1112L37.8965 12.7338H42.1622L42.9653 16H46.2672L42.6976 2.0785ZM41.5553 10.2351H38.5033L39.5921 5.8266C39.7527 5.20191 39.8955 4.55938 40.0026 3.91685H40.0918C40.181 4.55938 40.3238 5.20191 40.4845 5.8266L41.5553 10.2351ZM64.135 16L61.1365 9.89596C62.5108 9.30697 63.3675 8.14685 63.3675 6.16571C63.3675 3.38141 61.3328 2.0785 58.4593 2.0785H53.7652V16H56.9779V10.9133H58.3165L60.4047 16H64.135ZM56.9779 4.39875H58.1202C59.3874 4.39875 60.1548 5.07698 60.1548 6.50482C60.1548 7.98621 59.3874 8.5395 58.1202 8.5395H56.9779V4.39875ZM78.5785 11.1096C78.293 13.0729 77.6861 13.8582 76.4368 13.8582C74.9732 13.8582 74.0451 11.8057 74.0451 8.91431C74.0451 5.89799 74.884 4.22027 76.3297 4.22027C77.6326 4.22027 78.3108 5.09483 78.4893 7.05811L81.809 6.3085C81.3093 3.47065 79.4174 1.90002 76.5081 1.90002C72.9028 1.90002 70.654 4.63078 70.654 9.03925C70.654 13.769 72.7065 16.1785 76.6688 16.1785C79.5245 16.1785 81.2379 14.6971 82.0054 11.538L78.5785 11.1096ZM97.7147 2.0785V7.6114H93.0742V2.0785H89.7723V16H93.0742V10.1994H97.7147V16H101.017V2.0785H97.7147Z" transform="translate(122.824 13.5996)" fill="#514C4C"/>
<path fill-rule="evenodd" clip-rule="evenodd" d="M19.9457 42C30.9614 42 39.8914 32.598 39.8914 21C39.8914 9.40202 30.9614 0 19.9457 0C8.92999 0 0 9.40202 0 21C0 32.598 8.92999 42 19.9457 42Z" transform="translate(72 1)" stroke="#FFAE00" stroke-width="1.04989"/>
<path d="M0.182167 1.36625C0.182167 0.712298 0.712298 0.182167 1.36625 0.182167H10.6667C11.3206 0.182167 11.8507 0.712298 11.8507 1.36625V6.28023C11.8507 6.93418 11.3206 7.46431 10.6667 7.46431H1.36625C0.712298 7.46431 0.182167 6.93418 0.182167 6.28023V1.36625Z" transform="translate(80.4883 15.5166)" fill="#FFAE00" stroke="white" stroke-width="0.364333"/>
<path d="M0.182167 1.36625C0.182167 0.712298 0.712298 0.182167 1.36625 0.182167H10.6667C11.3206 0.182167 11.8507 0.712298 11.8507 1.36625V6.28023C11.8507 6.93418 11.3206 7.46431 10.6667 7.46431H1.36625C0.712298 7.46431 0.182167 6.93418 0.182167 6.28023V1.36625Z" transform="translate(91.9629 15.5166)" fill="#FFAE00" stroke="white" stroke-width="0.364333"/>
<path fill-rule="evenodd" clip-rule="evenodd" d="M0.787706 1.66339C1.22274 1.66339 1.57541 1.29103 1.57541 0.831697C1.57541 0.372364 1.22274 0 0.787706 0C0.352668 0 0 0.372364 0 0.831697C0 1.29103 0.352668 1.66339 0.787706 1.66339Z" transform="translate(100.543 30.1035)" fill="#FFAE00"/>
<path fill-rule="evenodd" clip-rule="evenodd" d="M0.787706 1.66339C1.22274 1.66339 1.57541 1.29103 1.57541 0.831697C1.57541 0.372364 1.22274 0 0.787706 0C0.352668 0 0 0.372364 0 0.831697C0 1.29103 0.352668 1.66339 0.787706 1.66339Z" transform="translate(82.8281 30.1035)" fill="#FFAE00"/>
<path fill-rule="evenodd" clip-rule="evenodd" d="M0 0H23.2859V3.76442H0V0Z" transform="translate(80.8223 22.1045)" fill="#FFAE00" stroke="white" stroke-width="0.364333"/>
<path fill-rule="evenodd" clip-rule="evenodd" d="M29.5516 3.69343C30.0867 3.55378 30.5516 3.15241 30.7742 2.57136C31.1434 1.61042 30.7098 0.519599 29.8035 0.134834C28.8992 -0.249932 27.868 0.216865 27.4989 1.1778C27.4188 1.38776 27.3778 1.60358 27.3699 1.81745C27.3641 1.83698 27.3602 1.84968 27.3602 1.84968L25.5047 6.06159H5.97346C5.12386 4.3946 3.84846 1.90436 3.48518 1.26569C3.45198 1.20808 3.41487 1.15339 3.37581 1.10456C2.98128 0.197334 1.98128 -0.234307 1.10042 0.139716C0.196121 0.524482 -0.237473 1.61433 0.131668 2.57526C0.367996 3.1944 0.881668 3.60749 1.45979 3.72077L3.1219 8.05378C3.06526 8.18561 3.03401 8.32722 3.03401 8.4737C3.03401 9.1778 3.75081 9.75788 4.65901 9.81257H4.73128L4.79964 9.81354L4.868 9.81257H26.6766L26.8133 9.81647C27.7899 9.81647 28.5809 9.21686 28.5809 8.47663C28.5809 8.2696 28.5203 8.07331 28.409 7.89851C28.7606 6.65339 29.3114 4.67878 29.5516 3.69343Z" transform="translate(76.6738 19.8203)" fill="#FFAE00" stroke="white" stroke-width="0.364333"/>
</svg>
