<svg width="22" height="22" viewBox="0 0 22 22" fill="none" xmlns="http://www.w3.org/2000/svg">
<path d="M5.32008 8.57133C5.17629 8.57133 4.88872 8.57133 4.74493 8.42848L0.143786 3.8571C0 3.71424 -5.48499e-07 3.57139 -5.48499e-07 3.28568C-5.48499e-07 2.99997 0.143786 2.85711 0.143786 2.71426L2.013 0.857133C3.16329 -0.285711 5.0325 -0.285711 6.039 0.857133L7.62065 2.42854C8.77094 3.57139 8.77094 5.42851 7.62065 6.4285L5.75143 8.28562C5.75143 8.57133 5.46386 8.57133 5.32008 8.57133ZM1.72543 3.28568L5.32008 6.85707L6.75793 5.42851C7.33308 4.85709 7.33308 3.99996 6.75793 3.42853L5.17629 1.85712C4.60115 1.2857 3.73843 1.2857 3.16329 1.85712L1.72543 3.28568Z" transform="translate(13.5156)" fill="#726F68"/>
<path d="M0.718929 19.4998C0.575143 19.4998 0.287572 19.3569 0.143786 19.3569C5.46357e-07 19.0712 0 18.9284 0 18.6426L0.862715 13.2141C0.862715 13.0713 1.0065 12.9284 1.0065 12.7856L13.6596 0.214283C13.9472 -0.0714278 14.3786 -0.0714278 14.6662 0.214283L19.2673 4.78566C19.4111 4.92852 19.4111 5.07137 19.4111 5.35708C19.4111 5.64279 19.2673 5.78565 19.2673 5.9285L6.61415 18.4998C6.47036 18.6426 6.32657 18.6426 6.18279 18.6426L0.718929 19.4998C0.862715 19.4998 0.718929 19.4998 0.718929 19.4998ZM2.30057 13.6427L1.58164 17.9284L5.89522 17.2141L17.8294 5.35708L14.2348 1.78569L2.30057 13.6427Z" transform="translate(0 2.5)" fill="#726F68"/>
<path d="M5.39197 5.9285C5.24818 5.9285 4.96061 5.9285 4.81682 5.78565L0.215679 1.21427C-0.0718924 0.928562 -0.0718924 0.499994 0.215679 0.214283C0.503251 -0.0714278 0.934608 -0.0714278 1.22218 0.214283L5.82333 4.78566C6.1109 5.07137 6.1109 5.49994 5.82333 5.78565C5.82333 5.78565 5.67954 5.9285 5.39197 5.9285Z" transform="translate(2.08398 13.9277)" fill="#726F68"/>
</svg>
