<svg xmlns="http://www.w3.org/2000/svg" width="26" height="22" viewBox="-1.5 0 26 22"><path fill="#726F68" d="M19.7 8.57c-.16 0-.46 0-.6-.14l-4.82-4.57c-.15-.15-.15-.29-.15-.58s.15-.42.15-.57L16.23.86c1.2-1.15 3.16-1.15 4.21 0l1.66 1.57c1.2 1.14 1.2 3 0 4l-1.96 1.86c0 .28-.3.28-.45.28zM15.93 3.3l3.75 3.57 1.5-1.43c.6-.57.6-1.43 0-2l-1.65-1.57a1.5 1.5 0 0 0-2.1 0l-1.5 1.43z"/><path fill="#726F68" d="M.75 22c-.15 0-.45-.14-.6-.14-.15-.29-.15-.43-.15-.72l.9-5.42c0-.15.15-.3.15-.44L14.28 2.71a.75.75 0 0 1 1.05 0l4.81 4.58c.15.14.15.28.15.57 0 .28-.15.42-.15.57L6.91 21c-.15.14-.3.14-.45.14L.76 22s.14 0 0 0zm1.65-5.86l-.75 4.29 4.51-.71L18.64 7.86l-3.76-3.58L2.4 16.14z"/><path fill="#726F68" d="M7.82 19.86c-.15 0-.46 0-.6-.15L2.4 15.14a.67.67 0 0 1 0-1 .75.75 0 0 1 1.06 0l4.8 4.57c.3.29.3.72 0 1 0 0-.14.15-.44.15z"/></svg>