<svg width="21" height="21" fill="none" xmlns="http://www.w3.org/2000/svg"><path d="M8.414 17.013a8.446 8.446 0 0 0 7.785-5.254 8.458 8.458 0 0 0 .628-3.24h-2.064a6.303 6.303 0 0 1-3.935 5.792 6.295 6.295 0 0 1-2.414.46v2.242zm8.413-8.493A8.46 8.46 0 0 0 11.645.685 8.445 8.445 0 0 0 8.414.027V2.27a6.294 6.294 0 0 1 5.85 3.843c.323.762.493 1.58.5 2.408l2.063-.001zM8.414.027A8.445 8.445 0 0 0 .628 5.282 8.458 8.458 0 0 0 0 8.52h2.064A6.304 6.304 0 0 1 5.999 2.73a6.294 6.294 0 0 1 2.415-.46V.027zM0 8.521a8.459 8.459 0 0 0 5.182 7.836 8.446 8.446 0 0 0 3.232.657v-2.242a6.295 6.295 0 0 1-6.35-6.251H0z" fill="#726F68"/><path d="M15.325 13.085a.975.975 0 0 0-1.459-.065 1.19 1.19 0 0 0-.06 1.584l1.519-1.52zm2.993 6.843a.975.975 0 0 0 1.457.065 1.19 1.19 0 0 0 .058-1.584l-1.515 1.519zm-4.512-5.324l4.512 5.324 1.515-1.52-4.508-5.323-1.519 1.519z" fill="#726F68"/></svg>