<svg width="21" height="21" viewBox="0 0 21 21" fill="none" xmlns="http://www.w3.org/2000/svg">
<path d="M8.41353 16.9861C9.52341 16.9814 10.6215 16.758 11.6451 16.3286C12.6686 15.8991 13.5976 15.2722 14.3789 14.4834C15.1602 13.6946 15.7786 12.7596 16.1986 11.7317C16.6187 10.7037 16.8322 9.60305 16.827 8.49252H14.7632C14.7567 9.32018 14.5873 10.1385 14.2646 10.9006C13.9419 11.6627 13.4724 12.3538 12.8827 12.9342C12.293 13.5147 11.5948 13.9733 10.828 14.2837C10.0612 14.5941 9.24071 14.7502 8.41353 14.7433V16.9861ZM16.827 8.49252C16.832 7.38208 16.6184 6.28151 16.1983 5.2537C15.7782 4.22588 15.1599 3.29094 14.3786 2.5023C13.5973 1.71365 12.6683 1.08675 11.6448 0.657397C10.6213 0.228046 9.52333 0.00466031 8.41353 0V2.24279C9.24071 2.23582 10.0612 2.392 10.828 2.7024C11.5948 3.0128 12.293 3.47134 12.8827 4.05182C13.4724 4.6323 13.9419 5.32335 14.2646 6.08547C14.5873 6.8476 14.7567 7.66587 14.7632 8.49354L16.827 8.49252ZM8.41353 0C7.30365 0.00466005 6.20556 0.228079 5.182 0.657494C4.15843 1.08691 3.22946 1.7139 2.44814 2.50266C1.66683 3.29141 1.04849 4.22646 0.628441 5.2544C0.208395 6.28234 -0.00511981 7.38301 9.32032e-05 8.49354H2.06384C2.07035 7.66587 2.23978 6.8476 2.56245 6.08547C2.88511 5.32335 3.3547 4.6323 3.94437 4.05182C4.53403 3.47134 5.23223 3.0128 5.99907 2.7024C6.76591 2.392 7.58635 2.23582 8.41353 2.24279V0ZM9.32032e-05 8.49354C-0.00511981 9.60406 0.208395 10.7047 0.628441 11.7327C1.04849 12.7606 1.66683 13.6957 2.44814 14.4844C3.22946 15.2732 4.15843 15.9002 5.182 16.3296C6.20556 16.759 7.30365 16.9824 8.41353 16.9871V14.7443C7.58635 14.7512 6.76591 14.5951 5.99907 14.2847C5.23223 13.9743 4.53403 13.5157 3.94437 12.9352C3.3547 12.3548 2.88511 11.6637 2.56245 10.9016C2.23978 10.1395 2.07035 9.3212 2.06384 8.49354H9.32032e-05Z" transform="translate(0 0.0273438)" fill="#726F68"/>
<path d="M1.79133 0.36197C1.70453 0.254625 1.59595 0.166938 1.47277 0.104706C1.34958 0.0424739 1.2146 0.00711522 1.07674 0.000967511C0.938882 -0.0051802 0.801289 0.0180232 0.67306 0.0690435C0.54483 0.120064 0.428885 0.197739 0.332891 0.296933C0.130103 0.507506 0.0119038 0.785419 0.000851409 1.07763C-0.010201 1.36985 0.086667 1.65591 0.272969 1.88121L1.79133 0.36197ZM4.78438 7.20517C4.87117 7.31235 4.97969 7.39989 5.10279 7.46202C5.22588 7.52415 5.36074 7.55945 5.49847 7.5656C5.6362 7.57175 5.77367 7.5486 5.9018 7.49768C6.02993 7.44676 6.14581 7.36923 6.2418 7.27021C6.44429 7.05938 6.56212 6.78133 6.5728 6.48912C6.58348 6.19691 6.48626 5.91099 6.29969 5.68593L4.78438 7.20517ZM0.272969 1.88121L4.78438 7.20517L6.29969 5.68593L1.79133 0.36197L0.272969 1.88121Z" transform="translate(13.5332 12.7227)" fill="#726F68"/>
</svg>
