<svg width="26" height="26" fill="none" xmlns="http://www.w3.org/2000/svg"><path d="M13.07 16.88a3.76 3.76 0 0 1-3.8-3.8c0-2.13 1.68-3.8 3.8-3.8 2.13 0 3.8 1.67 3.8 3.8s-1.67 3.8-3.8 3.8zm0-6.08a2.34 2.34 0 0 0-2.28 2.28 2.34 2.34 0 0 0 2.28 2.28 2.34 2.34 0 0 0 2.29-2.28 2.34 2.34 0 0 0-2.29-2.28z" fill="#726F68"/><path d="M14.14 26h-1.98c-.9 0-1.82-.76-1.82-1.82v-1.52c-.6-.16-1.22-.46-1.83-.77h-.3l-1.06 1.07c-.61.6-1.83.6-2.59 0l-1.52-1.52a1.75 1.75 0 0 1 0-2.59l1.07-1.06c.15-.15 0-.3 0-.3-.3-.46-.46-1.07-.61-1.53 0-.15-.15-.15-.3-.15H1.81C.92 15.81 0 15.05 0 14V12c0-.91.76-1.82 1.82-1.82H3.2c.16 0 .16-.15.3-.15.16-.61.46-1.07.62-1.53v-.3L3.04 7.15a1.75 1.75 0 0 1 0-2.59l1.52-1.52c.61-.6 1.83-.6 2.59 0L8.2 4.11c.15.15.15.15.3 0 .46-.3 1.07-.46 1.53-.61.15 0 .15-.15.15-.3V1.81C10.19.92 10.95 0 12 0H14c.91 0 1.82.76 1.82 1.82V3.2c0 .16.15.16.15.3.46.16 1.07.46 1.53.62h.3l1.06-1.07c.61-.6 1.83-.6 2.59 0l1.52 1.52c.76.76.76 1.83 0 2.59L21.89 8.2c-.15.15 0 .3 0 .3.3.46.46 1.07.61 1.53 0 .15.16.15.3.15h1.38c.9 0 1.82.76 1.82 1.82V14c0 .91-.76 1.82-1.82 1.82H22.8c-.15 0-.15.15-.3.15-.16.61-.46 1.07-.62 1.53v.3l1.07 1.06c.76.76.76 1.83 0 2.59l-1.52 1.52c-.61.6-1.83.6-2.59 0l-1.06-1.07c-.15-.15-.15-.15-.3 0-.46.3-1.07.46-1.53.61-.15 0-.15.16-.15.3v1.38c0 1.06-.76 1.82-1.67 1.82zm-5.78-5.63c.3 0 .61 0 .91.16.61.3 1.37.6 1.98.76.3.15.61.45.61.76v2.13c0 .15.15.3.3.3h1.98c.15 0 .3-.15.3-.3V22.8c0-.76.46-1.52 1.22-1.68.46-.15.91-.3 1.37-.6.76-.3 1.52-.3 2.13.3l1.06 1.06c.15.16.3.16.3 0l1.53-1.52c.15-.15.15-.3 0-.3l-1.07-1.06c-.6-.61-.6-1.37-.3-2.13.15-.46.45-.92.6-1.37.31-.76.92-1.22 1.68-1.22h1.37c.15 0 .3-.15.3-.3V12c0-.15-.15-.3-.3-.3h-1.37c-.76 0-1.52-.46-1.67-1.22-.16-.45-.3-.91-.61-1.37-.3-.76-.3-1.52.3-2.13l1.07-1.06c.15-.15.15-.3 0-.3L20.53 4.1c-.16-.16-.3-.16-.3 0l-1.07 1.06c-.61.46-1.37.6-2.13.3-.46-.15-.91-.45-1.37-.6-.76-.3-1.22-.92-1.22-1.68V1.82c0-.15-.15-.3-.3-.3h-1.98c-.15 0-.3.15-.3.3V3.2c0 .76-.46 1.52-1.22 1.68-.45.15-.9.3-1.37.6-.76.3-1.52.3-2.12-.3L6.08 4.11c-.15-.16-.3-.16-.3 0L4.26 5.63c-.15.15-.15.3 0 .3l1.06 1.06c.61.61.61 1.37.3 2.13-.15.46-.45.92-.6 1.37-.3.76-.91 1.22-1.67 1.22H1.98c-.16 0-.3.15-.3.3V14c0 .15.14.3.3.3h1.37c.76 0 1.52.46 1.67 1.22.15.45.3.91.6 1.37.31.76.31 1.52-.3 2.13l-1.06 1.06c-.15.15-.15.3 0 .3l1.52 1.52c.15.16.3.16.3 0l1.07-1.06c.3-.3.76-.46 1.21-.46z" fill="#726F68"/></svg>