<svg width="22" height="22" viewBox="0 0 22 22" fill="none" xmlns="http://www.w3.org/2000/svg">
<path d="M0.806667 10.0467C0.66 10.0467 0.366667 10.0467 0.220001 9.9C-0.0733328 9.60667 -0.0733328 9.16667 0.220001 8.87333L4.03333 5.06L0.220001 1.24667C-0.0733328 0.953333 -0.0733328 0.513332 0.220001 0.219999C0.513334 -0.0733345 0.953332 -0.0733345 1.24667 0.219999L5.64667 4.62C5.94 4.91333 5.94 5.35333 5.64667 5.64667L1.24667 10.0467C1.24667 10.0467 0.953333 10.0467 0.806667 10.0467Z" transform="translate(16.0586 6.08594)" fill="#726F68"/>
<path d="M12.4667 1.46667H0.733333C0.293333 1.46667 0 1.17333 0 0.733333C0 0.293333 0.293333 0 0.733333 0H12.4667C12.9067 0 13.2 0.293333 13.2 0.733333C13.2 1.17333 12.9067 1.46667 12.4667 1.46667Z" transform="translate(8.06641 10.2656)" fill="#726F68"/>
<path d="M12.4667 22H3.66667C1.61333 22 0 20.3867 0 18.3333V3.66667C0 1.61333 1.61333 0 3.66667 0H12.4667C12.9067 0 13.2 0.293333 13.2 0.733333C13.2 1.17333 12.9067 1.46667 12.4667 1.46667H3.66667C2.49333 1.46667 1.46667 2.49333 1.46667 3.66667V18.3333C1.46667 19.5067 2.49333 20.5333 3.66667 20.5333H12.4667C12.9067 20.5333 13.2 20.8267 13.2 21.2667C13.2 21.7067 12.9067 22 12.4667 22Z" fill="#726F68"/>
</svg>
