<svg xmlns="http://www.w3.org/2000/svg" width="26" height="22" viewBox="-2 0 26 22"><path fill="#726F68" d="M16.9 16.1l-.6-.1a.7.7 0 0 1 0-1L20 11l-3.8-3.8a.7.7 0 0 1 0-1 .7.7 0 0 1 1 0l4.4 4.4c.3.3.3.7 0 1l-4.4 4.4H17z"/><path fill="#726F68" d="M20.5 11.7H8.8a.7.7 0 0 1-.7-.7c0-.4.3-.7.7-.7h11.7c.5 0 .8.3.8.7s-.3.7-.8.7z"/><path fill="#726F68" d="M12.5 22H3.7A3.6 3.6 0 0 1 0 18.4V3.7A3.6 3.6 0 0 1 3.6 0h8.9c.4 0 .7.3.7.7 0 .5-.3.8-.7.8H3.7c-1.2 0-2.2 1-2.2 2.2v14.6c0 1.2 1 2.2 2.2 2.2h8.8c.4 0 .7.3.7.8a.7.7 0 0 1-.7.7z"/></svg>