<svg width="22" height="22" fill="none" xmlns="http://www.w3.org/2000/svg"><path d="M16.87 16.13c-.15 0-.44 0-.6-.14a.7.7 0 0 1 0-1.03l3.82-3.81-3.81-3.82a.7.7 0 0 1 0-1.02.7.7 0 0 1 1.03 0l4.4 4.4c.29.29.29.73 0 1.02l-4.4 4.4h-.44z" fill="#726F68"/><path d="M20.53 11.73H8.8c-.44 0-.73-.3-.73-.73 0-.44.29-.73.73-.73h11.73c.44 0 .74.29.74.73s-.3.73-.74.73z" fill="#726F68"/><path d="M12.47 22h-8.8A3.63 3.63 0 0 1 0 18.33V3.67A3.63 3.63 0 0 1 3.67 0h8.8c.44 0 .73.3.73.73 0 .44-.3.74-.73.74h-8.8a2.26 2.26 0 0 0-2.2 2.2v14.66c0 1.18 1.02 2.2 2.2 2.2h8.8c.44 0 .73.3.73.74s-.3.73-.73.73z" fill="#726F68"/></svg>